<svg xmlns="http://www.w3.org/2000/svg" xmlns:xlink="http://www.w3.org/1999/xlink" width="74.5" height="79.182" viewBox="0 0 74.5 79.182">
  <defs>
    <filter id="Icon_awesome-fire-alt" x="0" y="0" width="74.5" height="79.182" filterUnits="userSpaceOnUse">
      <feOffset dy="3" input="SourceAlpha"/>
      <feGaussianBlur stdDeviation="7" result="blur"/>
      <feFlood flood-color="#1584e3"/>
      <feComposite operator="in" in2="blur"/>
      <feComposite in="SourceGraphic"/>
    </filter>
    <filter id="Icon_awesome-fire-alt-2" x="0" y="0" width="74.5" height="79.182" filterUnits="userSpaceOnUse">
      <feOffset dy="3" input="SourceAlpha"/>
      <feGaussianBlur stdDeviation="7" result="blur-2"/>
      <feFlood flood-color="#1584e3"/>
      <feComposite operator="in" in2="blur-2"/>
      <feComposite in="SourceGraphic"/>
    </filter>
  </defs>
  <g id="Group_83" data-name="Group 83" transform="translate(-523.052 -370.567)">
    <g id="Group_82" data-name="Group 82">
      <g id="Group_81" data-name="Group 81">
        <g transform="matrix(1, 0, 0, 1, 523.05, 370.57)" filter="url(#Icon_awesome-fire-alt)">
          <path id="Icon_awesome-fire-alt-3" data-name="Icon awesome-fire-alt" d="M22.75,3.6A42,42,0,0,0,18.8,7.817,54.554,54.554,0,0,0,11.813,0C4.9,6.41,0,14.763,0,19.8A15.98,15.98,0,0,0,15.75,36,15.98,15.98,0,0,0,31.5,19.8c0-3.746-3.655-11.471-8.75-16.2ZM21.381,27.552a9.45,9.45,0,0,1-5.43,1.7c-5.073,0-9.2-3.357-9.2-8.807,0-2.715,1.709-5.107,5.118-9.193.487.561,6.949,8.813,6.949,8.813l4.122-4.7c.291.482.556.953.792,1.4A8.387,8.387,0,0,1,21.381,27.552Z" transform="translate(21.5 18.68)" fill="none" stroke="#0d71cf" stroke-width="1"/>
        </g>
        <g transform="matrix(1, 0, 0, 1, 523.05, 370.57)" filter="url(#Icon_awesome-fire-alt-2)">
          <path id="Icon_awesome-fire-alt-4" data-name="Icon awesome-fire-alt" d="M22.75,3.6A42,42,0,0,0,18.8,7.817,54.554,54.554,0,0,0,11.813,0C4.9,6.41,0,14.763,0,19.8A15.98,15.98,0,0,0,15.75,36,15.98,15.98,0,0,0,31.5,19.8c0-3.746-3.655-11.471-8.75-16.2ZM21.381,27.552a9.45,9.45,0,0,1-5.43,1.7c-5.073,0-9.2-3.357-9.2-8.807,0-2.715,1.709-5.107,5.118-9.193.487.561,6.949,8.813,6.949,8.813l4.122-4.7c.291.482.556.953.792,1.4A8.387,8.387,0,0,1,21.381,27.552Z" transform="translate(21.5 18.68)" fill="none" stroke="#0d71cf" stroke-width="1"/>
        </g>
      </g>
    </g>
  </g>
</svg>
