<svg xmlns="http://www.w3.org/2000/svg" xmlns:xlink="http://www.w3.org/1999/xlink" width="74.5" height="79" viewBox="0 0 74.5 79">
  <defs>
    <filter id="Icon_awesome-train" x="0" y="0" width="74.5" height="79" filterUnits="userSpaceOnUse">
      <feOffset dy="3" input="SourceAlpha"/>
      <feGaussianBlur stdDeviation="7" result="blur"/>
      <feFlood flood-color="#1584e3"/>
      <feComposite operator="in" in2="blur"/>
      <feComposite in="SourceGraphic"/>
    </filter>
    <filter id="Icon_awesome-train-2" x="0" y="0" width="74.5" height="79" filterUnits="userSpaceOnUse">
      <feOffset dy="3" input="SourceAlpha"/>
      <feGaussianBlur stdDeviation="7" result="blur-2"/>
      <feFlood flood-color="#1584e3"/>
      <feComposite operator="in" in2="blur-2"/>
      <feComposite in="SourceGraphic"/>
    </filter>
  </defs>
  <g id="Group_79" data-name="Group 79" transform="translate(-741.05 -372.999)">
    <g transform="matrix(1, 0, 0, 1, 741.05, 373)" filter="url(#Icon_awesome-train)">
      <path id="Icon_awesome-train-3" data-name="Icon awesome-train" d="M31.5,6.75v18c0,3.643-4.333,6.75-9.142,6.75L26.786,35a.563.563,0,0,1-.349,1H5.063a.563.563,0,0,1-.349-1l4.428-3.5C4.347,31.5,0,28.4,0,24.75v-18C0,3.022,4.5,0,9,0H22.5C27.07,0,31.5,3.022,31.5,6.75Zm-3.375,9.563V8.438A1.687,1.687,0,0,0,26.438,6.75H5.063A1.687,1.687,0,0,0,3.375,8.438v7.875A1.687,1.687,0,0,0,5.063,18H26.438A1.687,1.687,0,0,0,28.125,16.313Zm-12.375,4.5a3.938,3.938,0,1,0,3.938,3.938A3.937,3.937,0,0,0,15.75,20.813Z" transform="translate(21.5 18.5)" fill="none" stroke="#0d71cf" stroke-width="1"/>
    </g>
    <g transform="matrix(1, 0, 0, 1, 741.05, 373)" filter="url(#Icon_awesome-train-2)">
      <path id="Icon_awesome-train-4" data-name="Icon awesome-train" d="M31.5,6.75v18c0,3.643-4.333,6.75-9.142,6.75L26.786,35a.563.563,0,0,1-.349,1H5.063a.563.563,0,0,1-.349-1l4.428-3.5C4.347,31.5,0,28.4,0,24.75v-18C0,3.022,4.5,0,9,0H22.5C27.07,0,31.5,3.022,31.5,6.75Zm-3.375,9.563V8.438A1.687,1.687,0,0,0,26.438,6.75H5.063A1.687,1.687,0,0,0,3.375,8.438v7.875A1.687,1.687,0,0,0,5.063,18H26.438A1.687,1.687,0,0,0,28.125,16.313Zm-12.375,4.5a3.938,3.938,0,1,0,3.938,3.938A3.937,3.937,0,0,0,15.75,20.813Z" transform="translate(21.5 18.5)" fill="none" stroke="#0d71cf" stroke-width="1"/>
    </g>
  </g>
</svg>
