<?xml version="1.0" standalone="no"?>
<!DOCTYPE svg PUBLIC "-//W3C//DTD SVG 20010904//EN"
 "http://www.w3.org/TR/2001/REC-SVG-20010904/DTD/svg10.dtd">
<svg version="1.0" xmlns="http://www.w3.org/2000/svg"
 width="310.000000pt" height="313.000000pt" viewBox="0 0 310.000000 313.000000"
 preserveAspectRatio="xMidYMid meet">

<g transform="translate(0.000000,313.000000) scale(0.100000,-0.100000)"
fill="#000000" stroke="none">
<path d="M877 2562 l-249 -2 4 -693 c3 -627 5 -695 20 -723 56 -103 242 -183
426 -184 l72 0 -2 802 c-2 525 -6 802 -13 802 -5 1 -122 0 -258 -2z"/>
<path d="M1330 1490 l0 -1070 260 0 260 0 -2 1068 -3 1067 -257 3 -258 2 0
-1070z"/>
<path d="M2010 1759 l0 -802 108 6 c131 6 218 32 304 90 46 31 69 54 85 87 21
44 22 54 28 733 l7 687 -266 0 -266 0 0 -801z"/>
</g>
</svg>
