<svg data-v-423bf9ae="" xmlns="http://www.w3.org/2000/svg" viewBox="0 0 309 90" class="iconLeft"><!----><!----><!----><g data-v-423bf9ae="" id="fa4db661-0940-4525-aceb-918e45545934" fill="white" transform="matrix(5.769230980844901,0,0,5.769230980844901,96.68031133561436,-7.961539890639216)"><path d="M2.53 11.90L2.53 11.90L2.53 11.90Q2.21 12.17 2.21 12.40L2.21 12.40L2.21 12.40Q2.21 12.64 2.33 12.77L2.33 12.77L2.33 12.77Q2.45 12.90 2.65 12.99L2.65 12.99L2.65 12.99Q2.84 13.08 3.08 13.15L3.08 13.15L3.08 13.15Q3.32 13.21 3.55 13.24L3.55 13.24L3.55 13.24Q3.99 13.30 4.40 13.30L4.40 13.30L4.40 13.30Q4.82 13.30 5.27 13.19L5.27 13.19L5.27 13.19Q5.73 13.08 6.08 12.84L6.08 12.84L6.08 12.84Q6.86 12.30 6.86 11.28L6.86 11.28L6.86 11.28Q6.86 10.27 5.48 9.72L5.48 9.72L5.48 9.72Q5.08 9.56 4.67 9.42L4.67 9.42L4.67 9.42Q4.26 9.28 3.86 9.13L3.86 9.13L3.86 9.13Q3.47 8.98 3.16 8.78L3.16 8.78L3.16 8.78Q2.47 8.34 2.47 7.64L2.47 7.64L2.47 7.64Q2.47 6.79 3.49 5.89L3.49 5.89L3.49 5.89Q4.35 5.13 5.67 4.58L5.67 4.58L5.67 4.58Q6.92 4.05 7.72 4.05L7.72 4.05L7.72 4.05Q8.35 4.05 8.73 4.17L8.73 4.17L8.73 4.17Q9.10 4.29 9.19 4.35L9.19 4.35L9.19 4.35Q9.29 4.42 9.29 4.50L9.29 4.50L9.29 4.50Q9.29 4.59 9.17 4.70L9.17 4.70L9.17 4.70Q9.05 4.82 8.87 4.96L8.87 4.96L8.87 4.96Q8.68 5.09 8.46 5.24L8.46 5.24L8.46 5.24Q8.24 5.38 8.03 5.50L8.03 5.50L8.03 5.50Q7.51 5.79 7.40 5.83L7.40 5.83L7.40 5.83Q7.71 5.62 7.71 5.46L7.71 5.46L7.71 5.46Q7.71 5.30 7.52 5.22L7.52 5.22L7.52 5.22Q7.32 5.13 7.07 5.07L7.07 5.07L7.07 5.07Q6.64 4.99 6.22 4.99L6.22 4.99L6.22 4.99Q5.80 4.99 5.40 5.07L5.40 5.07L5.40 5.07Q5.00 5.15 4.70 5.35L4.70 5.35L4.70 5.35Q4.03 5.79 4.03 6.70L4.03 6.70L4.03 6.70Q4.03 7.72 5.40 8.22L5.40 8.22L5.40 8.22Q5.79 8.36 6.20 8.49L6.20 8.49L6.20 8.49Q6.60 8.61 6.99 8.75L6.99 8.75L6.99 8.75Q7.38 8.89 7.68 9.10L7.68 9.10L7.68 9.10Q8.37 9.56 8.37 10.22L8.37 10.22L8.37 10.22Q8.37 10.89 8.09 11.41L8.09 11.41L8.09 11.41Q7.81 11.93 7.34 12.37L7.34 12.37L7.34 12.37Q6.88 12.81 6.28 13.16L6.28 13.16L6.28 13.16Q5.69 13.51 5.06 13.75L5.06 13.75L5.06 13.75Q3.75 14.25 2.70 14.25L2.70 14.25L2.70 14.25Q2.17 14.25 1.71 14.12L1.71 14.12L1.71 14.12Q1.25 13.99 1.06 13.89L1.06 13.89L1.06 13.89Q0.63 13.67 0.63 13.38L0.63 13.38L0.63 13.38Q0.63 12.80 2.53 11.90ZM11.89 5.17L10.32 5.17L10.32 5.17Q11.71 4.25 11.86 4.25L11.86 4.25L15.53 4.25L15.53 4.25Q17.16 4.25 17.77 5.24L17.77 5.24L17.77 5.24Q17.99 5.60 17.99 6.09L17.99 6.09L17.99 6.09Q17.99 6.58 17.84 7L17.84 7L17.84 7Q17.68 7.42 17.42 7.78L17.42 7.78L17.42 7.78Q17.17 8.15 16.82 8.47L16.82 8.47L16.82 8.47Q16.47 8.78 16.09 9.05L16.09 9.05L16.09 9.05Q15.46 9.50 14.74 9.85L14.74 9.85L14.74 9.85Q13.46 10.48 12.37 10.48L12.37 10.48L12.37 10.48Q12.18 10.48 11.99 10.47L11.99 10.47L11.99 10.47Q11.73 11.59 11.59 11.93L11.59 11.93L11.59 11.93Q11.29 12.67 10.64 13.15L10.64 13.15L12.79 13.15L12.79 13.15Q12.61 13.20 12.20 13.51L12.20 13.51L12.20 13.51Q11.79 13.82 11.59 13.95L11.59 13.95L11.59 13.95Q11.39 14.08 11.25 14.08L11.25 14.08L9.08 14.08L9.08 14.08Q9.64 13.67 9.82 13.38L9.82 13.38L9.82 13.38Q10.07 12.97 10.24 12.25L10.24 12.25L11.89 5.17ZM13.22 5.17L12.28 9.22L12.28 9.22Q13.51 9.54 14.10 9.54L14.10 9.54L14.10 9.54Q14.68 9.54 15.12 9.35L15.12 9.35L15.12 9.35Q15.57 9.15 15.87 8.80L15.87 8.80L15.87 8.80Q16.47 8.10 16.47 6.96L16.47 6.96L16.47 6.96Q16.47 5.17 13.51 5.17L13.51 5.17L13.22 5.17ZM17.25 13.16L17.25 13.16L17.25 13.16Q17.33 13.15 17.69 13.15L17.69 13.15L17.69 13.15Q18.05 13.15 18.30 13.14L18.30 13.14L18.30 13.14Q18.55 13.12 18.81 13.07L18.81 13.07L18.81 13.07Q19.40 12.97 19.74 12.78L19.74 12.78L19.74 12.78Q18.53 13.60 18.13 13.75L18.13 13.75L18.13 13.75Q17.72 13.91 17.42 13.97L17.42 13.97L17.42 13.97Q16.84 14.08 15.96 14.08L15.96 14.08L15.70 14.08L15.72 14.05L15.72 14.05Q15.95 13.86 16.17 13.66L16.17 13.66L16.17 13.66Q16.40 13.47 16.78 13.08L16.78 13.08L16.78 13.08Q17.17 12.69 17.65 12.08L17.65 12.08L17.65 12.08Q18.14 11.47 18.58 10.83L18.58 10.83L18.58 10.83Q19.03 10.19 19.46 9.53L19.46 9.53L19.46 9.53Q19.89 8.88 20.33 8.21L20.33 8.21L20.33 8.21Q20.77 7.55 21.24 6.88L21.24 6.88L21.24 6.88Q21.70 6.21 21.94 5.82L21.94 5.82L21.94 5.82Q22.18 5.42 22.22 5.34L22.22 5.34L22.22 5.34Q22.27 5.25 22.34 5.17L22.34 5.17L21.82 5.17L21.82 5.17Q20.54 5.17 19.78 5.46L19.78 5.46L19.78 5.46Q20.95 4.61 21.70 4.40L21.70 4.40L21.70 4.40Q22.21 4.27 22.80 4.26L22.80 4.26L22.80 4.26Q23.39 4.25 23.88 4.25L23.88 4.25L23.88 4.25Q24.03 6.25 24.16 8.23L24.16 8.23L24.16 8.23Q24.29 10.21 24.40 11.30L24.40 11.30L24.40 11.30Q24.51 12.39 24.52 12.58L24.52 12.58L24.52 12.58Q24.53 12.76 24.59 12.91L24.59 12.91L24.59 12.91Q24.71 13.25 25.15 13.25L25.15 13.25L25.15 13.25Q25.59 13.25 26.13 12.94L26.13 12.94L26.13 12.94Q25.91 13.08 25.59 13.30L25.59 13.30L25.59 13.30Q25.27 13.51 24.91 13.71L24.91 13.71L24.91 13.71Q24.05 14.21 23.60 14.21L23.60 14.21L23.60 14.21Q23.13 14.21 23.03 13.74L23.03 13.74L23.03 13.74Q22.88 13.08 22.83 12.00L22.83 12.00L22.83 12.00Q22.78 10.92 22.70 10.08L22.70 10.08L22.70 10.08Q22.00 10.51 19.69 10.46L19.69 10.46L19.69 10.46Q18.59 11.97 17.25 13.16ZM20.45 9.51L21.79 9.54L21.79 9.54Q22.22 9.54 22.66 9.51L22.66 9.51L22.66 9.51Q22.53 7.92 22.43 6.45L22.43 6.45L22.43 6.45Q21.45 7.94 20.34 9.53L20.34 9.53L20.34 9.53Q20.43 9.51 20.45 9.51L20.45 9.51ZM36.05 4.10L36.05 4.10L36.05 4.10Q36.53 4.22 36.65 4.29L36.65 4.29L36.65 4.29Q36.77 4.35 36.77 4.41L36.77 4.41L36.77 4.41Q36.77 4.46 36.65 4.56L36.65 4.56L36.65 4.56Q36.52 4.66 36.33 4.78L36.33 4.78L36.33 4.78Q36.14 4.91 35.91 5.05L35.91 5.05L35.91 5.05Q35.68 5.19 35.47 5.31L35.47 5.31L35.47 5.31Q34.97 5.61 34.86 5.64L34.86 5.64L34.86 5.64Q34.88 5.62 34.94 5.58L34.94 5.58L34.94 5.58Q34.99 5.54 35.05 5.50L35.05 5.50L35.05 5.50Q35.21 5.38 35.21 5.33L35.21 5.33L35.21 5.33Q35.21 5.28 34.90 5.16L34.90 5.16L34.90 5.16Q34.28 4.92 33.17 4.92L33.17 4.92L33.17 4.92Q32.07 4.92 31.14 5.30L31.14 5.30L31.14 5.30Q30.21 5.69 29.57 6.38L29.57 6.38L29.57 6.38Q28.23 7.80 28.23 10.07L28.23 10.07L28.23 10.07Q28.23 11.57 29.02 12.47L29.02 12.47L29.02 12.47Q29.85 13.42 31.33 13.42L31.33 13.42L31.33 13.42Q32.55 13.42 34.51 12.64L34.51 12.64L34.51 12.64Q33.00 13.82 30.96 14.25L30.96 14.25L30.96 14.25Q30.31 14.38 29.64 14.38L29.64 14.38L29.64 14.38Q28.96 14.38 28.39 14.14L28.39 14.14L28.39 14.14Q27.82 13.90 27.44 13.47L27.44 13.47L27.44 13.47Q26.66 12.60 26.66 11.13L26.66 11.13L26.66 11.13Q26.66 9.21 27.97 7.49L27.97 7.49L27.97 7.49Q29.16 5.91 31.10 4.94L31.10 4.94L31.10 4.94Q33.00 3.98 34.88 3.98L34.88 3.98L34.88 3.98Q35.57 3.98 36.05 4.10Z"></path></g><!----><g data-v-423bf9ae="" id="b0a46676-b185-4864-871e-4c774adb66f1" transform="matrix(1.1142473624837523,0,0,1.1142473624837523,-14.749712609497543,-11.146014546080579)" stroke="none" fill="white"><g clip-rule="evenodd"><path d="M59.941 90.803h-19.53v-80.66h19.53v80.66zM14.014 10.031h19.942v60.474c-5.886-.049-11.652-.364-16.62-4.137-1.888-1.434-2.943-3.246-2.966-5.58-.163-16.492-.295-32.985-.433-49.478-.003-.354.042-.709.077-1.279zM65.918 70.622V10.094h20.096c0 .757.007 1.529-.001 2.301-.138 15.979-.286 31.959-.408 47.939-.021 2.7-1.072 4.776-3.342 6.272-3.433 2.263-7.116 3.664-11.289 3.671-1.606.002-3.21.212-5.056.345z"></path></g></g><!----></svg>